
<svg width="2426" height="624" viewBox="0 0 2426 624" fill="none" xmlns="http://www.w3.org/2000/svg">
<g clip-path="url(#clip0_16_40)">
<path d="M478.5 149.4L329 0H0V603.4H478.5V149.4Z" fill="#F3F7FA"/>
<path d="M478.5 149.4L329 0H0V603.4H478.5V149.4Z" fill="#FEC62C"/>
<path d="M187.2 311.3H387.8" stroke="#053042" stroke-width="24" stroke-miterlimit="10"/>
<path d="M90.7 311.3H187.2" stroke="#20399D" stroke-width="24" stroke-miterlimit="10"/>
<path d="M90.7 232.7H387.8" stroke="#20399D" stroke-width="22" stroke-miterlimit="10"/>
<path d="M90.7 468.5H307.3" stroke="#053042" stroke-width="24" stroke-miterlimit="10"/>
<path d="M90.7 389.9H387.8" stroke="#053042" stroke-width="24" stroke-miterlimit="10"/>
<path d="M467.3 249.4L436.6 269.9C446.7 299.7 447.9 331.4 441 361.2L493.1 326.4L495.4 324.8L549.9 288.4C519.7 283.4 491 270.2 467.3 249.4Z" fill="#F3F7FA"/>
<path d="M439.2 207.5L467.3 249.4L436.6 269.9L418.5 242.9L439.2 207.5Z" fill="#20399D"/>
<path d="M646.1 619.1L709.8 576.6C722.3 568.3 725.7 551.4 717.3 538.9L549.9 288.4L441 361.2L608.3 611.6C616.7 624.1 633.6 627.5 646.1 619.1Z" fill="#20399D"/>
<path d="M329 149.4H478.5L329 0V149.4Z" fill="#20399D"/>
<path fill-rule="evenodd" clip-rule="evenodd" d="M187 139C187 113.595 166.405 93 141 93C115.595 93 95 113.595 95 139C95 164.405 115.595 185 141 185C166.405 185 187 164.405 187 139ZM170.571 139C170.571 122.668 157.332 109.429 141 109.429C124.668 109.429 111.429 122.668 111.429 139C111.429 155.332 124.668 168.571 141 168.571C157.332 168.571 170.571 155.332 170.571 139Z" fill="#20399D"/>
<path fill-rule="evenodd" clip-rule="evenodd" d="M103.345 112.572C98.087 120.05 95 129.164 95 139C95 148.747 98.0313 157.785 103.203 165.225L119.19 158.97C114.37 153.709 111.429 146.698 111.429 139C111.429 131.209 114.442 124.121 119.366 118.839L103.345 112.572ZM170.571 138.87C170.571 138.87 170.571 138.87 170.571 138.871L170.571 138.87L170.571 138.87Z" fill="white"/>
<path fill-rule="evenodd" clip-rule="evenodd" d="M186.083 129.8C186.684 132.768 187 135.84 187 138.985C187 142.131 186.684 145.202 186.083 148.17L170.571 138.985L186.083 129.8Z" fill="white"/>
<path d="M898.773 416.61C881.474 416.61 866.197 413.689 852.941 407.848C839.686 401.782 829.239 393.244 821.6 382.236C813.962 371.002 810.03 357.41 809.805 341.459H855.3C855.75 352.467 859.681 361.791 867.095 369.43C874.734 376.844 885.181 380.551 898.436 380.551C909.894 380.551 918.993 377.855 925.733 372.463C932.473 366.846 935.843 359.432 935.843 350.221C935.843 340.56 932.81 333.034 926.744 327.642C920.903 322.25 913.04 317.869 903.154 314.499C893.269 311.129 882.71 307.534 871.476 303.715C853.278 297.424 839.349 289.336 829.688 279.451C820.252 269.565 815.534 256.422 815.534 240.022C815.31 226.092 818.567 214.185 825.307 204.3C832.272 194.19 841.708 186.439 853.615 181.047C865.523 175.43 879.227 172.622 894.729 172.622C910.456 172.622 924.273 175.43 936.18 181.047C948.312 186.663 957.748 194.527 964.488 204.637C971.453 214.747 975.16 226.766 975.609 240.696H929.44C929.216 232.383 925.958 225.081 919.667 218.791C913.601 212.275 905.064 209.018 894.055 209.018C884.619 208.793 876.644 211.152 870.128 216.095C863.838 220.813 860.692 227.777 860.692 236.989C860.692 244.852 863.164 251.143 868.106 255.861C873.049 260.354 879.789 264.173 888.326 267.319C896.864 270.464 906.637 273.834 917.645 277.429C929.328 281.473 940 286.191 949.66 291.583C959.321 296.975 967.072 304.164 972.913 313.151C978.755 321.913 981.675 333.258 981.675 347.188C981.675 359.544 978.53 371.002 972.239 381.562C965.949 392.121 956.625 400.658 944.268 407.174C931.912 413.464 916.747 416.61 898.773 416.61ZM1016.8 486.706V245.414H1055.22L1059.94 269.341C1065.33 261.927 1072.41 255.411 1081.17 249.795C1090.15 244.178 1101.72 241.37 1115.88 241.37C1131.61 241.37 1145.65 245.189 1158 252.828C1170.36 260.466 1180.13 270.913 1187.32 284.169C1194.51 297.424 1198.11 312.477 1198.11 329.327C1198.11 346.177 1194.51 361.229 1187.32 374.485C1180.13 387.515 1170.36 397.85 1158 405.489C1145.65 412.903 1131.61 416.61 1115.88 416.61C1103.3 416.61 1092.29 414.251 1082.85 409.533C1073.42 404.815 1065.78 398.187 1059.94 389.65V486.706H1016.8ZM1106.78 378.866C1120.48 378.866 1131.83 374.26 1140.82 365.049C1149.8 355.837 1154.3 343.93 1154.3 329.327C1154.3 314.723 1149.8 302.704 1140.82 293.268C1131.83 283.832 1120.48 279.114 1106.78 279.114C1092.85 279.114 1081.39 283.832 1072.41 293.268C1063.64 302.479 1059.26 314.386 1059.26 328.99C1059.26 343.593 1063.64 355.613 1072.41 365.049C1081.39 374.26 1092.85 378.866 1106.78 378.866ZM1316.36 416.61C1299.51 416.61 1284.57 413.015 1271.54 405.826C1258.51 398.636 1248.28 388.526 1240.87 375.496C1233.46 362.465 1229.75 347.412 1229.75 330.338C1229.75 313.038 1233.34 297.649 1240.53 284.169C1247.95 270.689 1258.06 260.242 1270.86 252.828C1283.89 245.189 1299.17 241.37 1316.69 241.37C1333.1 241.37 1347.59 244.964 1360.17 252.154C1372.75 259.343 1382.52 269.228 1389.49 281.81C1396.68 294.166 1400.27 307.983 1400.27 323.261C1400.27 325.732 1400.16 328.316 1399.93 331.012C1399.93 333.708 1399.82 336.516 1399.6 339.437H1272.55C1273.45 352.467 1277.94 362.69 1286.03 370.104C1294.34 377.518 1304.34 381.225 1316.02 381.225C1324.78 381.225 1332.08 379.315 1337.93 375.496C1343.99 371.452 1348.48 366.284 1351.41 359.994H1395.22C1392.07 370.553 1386.79 380.214 1379.38 388.976C1372.19 397.513 1363.2 404.253 1352.42 409.196C1341.86 414.138 1329.84 416.61 1316.36 416.61ZM1316.69 276.418C1306.14 276.418 1296.81 279.451 1288.72 285.517C1280.64 291.358 1275.47 300.345 1273.22 312.477H1356.46C1355.79 301.468 1351.74 292.706 1344.33 286.191C1336.91 279.675 1327.7 276.418 1316.69 276.418ZM1516.94 416.61C1499.87 416.61 1484.81 412.903 1471.78 405.489C1458.75 398.075 1448.42 387.74 1440.78 374.485C1433.37 361.229 1429.66 346.064 1429.66 328.99C1429.66 311.915 1433.37 296.75 1440.78 283.495C1448.42 270.239 1458.75 259.905 1471.78 252.491C1484.81 245.077 1499.87 241.37 1516.94 241.37C1538.28 241.37 1556.26 246.986 1570.86 258.22C1585.46 269.228 1594.79 284.506 1598.83 304.052H1553.34C1551.09 295.964 1546.6 289.673 1539.86 285.18C1533.34 280.462 1525.59 278.103 1516.6 278.103C1504.7 278.103 1494.59 282.596 1486.27 291.583C1477.96 300.569 1473.81 313.038 1473.81 328.99C1473.81 344.941 1477.96 357.41 1486.27 366.397C1494.59 375.383 1504.7 379.877 1516.6 379.877C1525.59 379.877 1533.34 377.63 1539.86 373.137C1546.6 368.643 1551.09 362.24 1553.34 353.928H1598.83C1594.79 372.8 1585.46 387.965 1570.86 399.423C1556.26 410.881 1538.28 416.61 1516.94 416.61ZM1707.79 412.566C1690.27 412.566 1676.23 408.297 1665.67 399.76C1655.11 391.222 1649.83 376.057 1649.83 354.265V281.473H1621.18V245.414H1649.83L1654.88 200.593H1692.96V245.414H1738.12V281.473H1692.96V354.602C1692.96 362.69 1694.65 368.306 1698.02 371.452C1701.61 374.372 1707.68 375.833 1716.22 375.833H1737.11V412.566H1707.79ZM1831.28 416.61C1816.91 416.61 1805.11 414.363 1795.9 409.87C1786.69 405.152 1779.84 398.973 1775.34 391.335C1770.85 383.696 1768.6 375.271 1768.6 366.06C1768.6 350.558 1774.67 337.976 1786.8 328.316C1798.93 318.655 1817.13 313.825 1841.39 313.825H1883.86V309.781C1883.86 298.323 1880.6 289.898 1874.08 284.506C1867.57 279.114 1859.48 276.418 1849.82 276.418C1841.06 276.418 1833.42 278.552 1826.9 282.821C1820.39 286.865 1816.34 292.931 1814.77 301.019H1772.65C1773.77 288.887 1777.81 278.327 1784.78 269.341C1791.97 260.354 1801.18 253.502 1812.41 248.784C1823.65 243.841 1836.23 241.37 1850.16 241.37C1873.97 241.37 1892.73 247.323 1906.44 259.231C1920.14 271.138 1926.99 287.988 1926.99 309.781V412.566H1890.26L1886.22 385.606C1881.27 394.592 1874.31 402.006 1865.32 407.848C1856.56 413.689 1845.21 416.61 1831.28 416.61ZM1841.06 382.91C1853.41 382.91 1862.96 378.866 1869.7 370.778C1876.67 362.69 1881.05 352.692 1882.85 340.785H1846.11C1834.65 340.785 1826.45 342.919 1821.51 347.188C1816.57 351.232 1814.1 356.287 1814.1 362.353C1814.1 368.868 1816.57 373.923 1821.51 377.518C1826.45 381.112 1832.97 382.91 1841.06 382.91ZM2038.83 412.566C2021.31 412.566 2007.26 408.297 1996.71 399.76C1986.15 391.222 1980.87 376.057 1980.87 354.265V281.473H1952.22V245.414H1980.87L1985.92 200.593H2024V245.414H2069.16V281.473H2024V354.602C2024 362.69 2025.69 368.306 2029.06 371.452C2032.65 374.372 2038.72 375.833 2047.26 375.833H2068.15V412.566H2038.83ZM2180.62 416.61C2164.45 416.61 2149.84 412.903 2136.81 405.489C2124.01 398.075 2113.79 387.852 2106.15 374.822C2098.73 361.566 2095.03 346.289 2095.03 328.99C2095.03 311.69 2098.85 296.525 2106.48 283.495C2114.12 270.239 2124.34 259.905 2137.15 252.491C2150.18 245.077 2164.78 241.37 2180.96 241.37C2196.91 241.37 2211.29 245.077 2224.1 252.491C2237.13 259.905 2247.35 270.239 2254.76 283.495C2262.4 296.525 2266.22 311.69 2266.22 328.99C2266.22 346.289 2262.4 361.566 2254.76 374.822C2247.35 387.852 2237.13 398.075 2224.1 405.489C2211.07 412.903 2196.58 416.61 2180.62 416.61ZM2180.62 379.203C2191.86 379.203 2201.63 375.046 2209.94 366.734C2218.26 358.196 2222.41 345.615 2222.41 328.99C2222.41 312.364 2218.26 299.895 2209.94 291.583C2201.63 283.045 2191.97 278.777 2180.96 278.777C2169.5 278.777 2159.62 283.045 2151.3 291.583C2143.22 299.895 2139.17 312.364 2139.17 328.99C2139.17 345.615 2143.22 358.196 2151.3 366.734C2159.62 375.046 2169.39 379.203 2180.62 379.203ZM2303.29 412.566V245.414H2341.71L2345.75 276.755C2351.82 265.971 2360.02 257.433 2370.35 251.143C2380.91 244.627 2393.27 241.37 2407.42 241.37V286.865H2395.29C2385.85 286.865 2377.43 288.325 2370.02 291.246C2362.6 294.166 2356.76 299.221 2352.49 306.411C2348.45 313.6 2346.43 323.598 2346.43 336.404V412.566H2303.29Z" fill="#053042"/>
</g>
<defs>
<clipPath id="clip0_16_40">
<rect width="2425.36" height="623.715" fill="white"/>
</clipPath>
</defs>
</svg>
